<?xml version="1.0" encoding="UTF-8"?>
<svg height="16px" viewBox="0 0 16 16" width="16px" xmlns="http://www.w3.org/2000/svg" xmlns:xlink="http://www.w3.org/1999/xlink">
    <filter id="a" height="100%" width="100%" x="0%" y="0%">
        <feColorMatrix in="SourceGraphic" type="matrix" values="0 0 0 0 1 0 0 0 0 1 0 0 0 0 1 0 0 0 1 0"/>
    </filter>
    <mask id="b">
        <g filter="url(#a)">
            <rect fill-opacity="0.15" height="16" width="16"/>
        </g>
    </mask>
    <clipPath id="c">
        <rect height="152" width="192"/>
    </clipPath>
    <mask id="d">
        <g filter="url(#a)">
            <rect fill-opacity="0.15" height="16" width="16"/>
        </g>
    </mask>
    <clipPath id="e">
        <rect height="152" width="192"/>
    </clipPath>
    <mask id="f">
        <g filter="url(#a)">
            <rect fill-opacity="0.1" height="16" width="16"/>
        </g>
    </mask>
    <clipPath id="g">
        <rect height="152" width="192"/>
    </clipPath>
    <mask id="h">
        <g filter="url(#a)">
            <rect fill-opacity="0.15" height="16" width="16"/>
        </g>
    </mask>
    <clipPath id="i">
        <rect height="152" width="192"/>
    </clipPath>
    <mask id="j">
        <g filter="url(#a)">
            <rect fill-opacity="0.3" height="16" width="16"/>
        </g>
    </mask>
    <clipPath id="k">
        <rect height="152" width="192"/>
    </clipPath>
    <g clip-path="url(#c)" mask="url(#b)" transform="matrix(1 0 0 1 -168 -16)">
        <path d="m 72 35 c -7.457031 0 -13.5 6.042969 -13.5 13.5 c 0.007812 3.34375 1.253906 6.566406 3.5 9.042969 v 3.457031 c 0 0.554688 0.445312 1 1 1 h 18 c 0.554688 0 1 -0.445312 1 -1 v -3.457031 c 2.246094 -2.476563 3.492188 -5.699219 3.5 -9.042969 c 0 -7.457031 -6.042969 -13.5 -13.5 -13.5 z m 0 0"/>
    </g>
    <g clip-path="url(#e)" mask="url(#d)" transform="matrix(1 0 0 1 -168 -16)">
        <path d="m 64 57 h 16 c 0.550781 0 1 0.449219 1 1 v 2 c 0 0.550781 -0.449219 1 -1 1 h -16 c -0.550781 0 -1 -0.449219 -1 -1 v -2 c 0 -0.550781 0.449219 -1 1 -1 z m 0 0"/>
    </g>
    <g clip-path="url(#g)" mask="url(#f)" transform="matrix(1 0 0 1 -168 -16)">
        <path d="m 72 36 c -6.628906 0 -12 5.371094 -12 12 c 0.003906 3.410156 1.460938 6.652344 4 8.925781 v 2.074219 c 0 0.554688 0.445312 1 1 1 h 14 c 0.554688 0 1 -0.445312 1 -1 v -2.074219 c 2.539062 -2.273437 3.996094 -5.515625 4 -8.925781 c 0 -6.628906 -5.371094 -12 -12 -12 z m 0 0" fill="#ffffff"/>
    </g>
    <g clip-path="url(#i)" mask="url(#h)" transform="matrix(1 0 0 1 -168 -16)">
        <path d="m 28 45 v 67 s 4 -9.5 4 -32 s -4 -35 -4 -35 z m 88 0 s -4 12.5 -4 35 s 4 32 4 32 z m 0 0" fill="#ffffff"/>
    </g>
    <g clip-path="url(#k)" mask="url(#j)" transform="matrix(1 0 0 1 -168 -16)">
        <path d="m 48 74 c -2.769531 0 -5 2.230469 -5 5 v 6 c 0 2.769531 2.230469 5 5 5 s 5 -2.230469 5 -5 v -6 c 0 -2.769531 -2.230469 -5 -5 -5 z m 16 0 c -2.769531 0 -5 2.230469 -5 5 v 6 c 0 2.769531 2.230469 5 5 5 s 5 -2.230469 5 -5 v -6 c 0 -2.769531 -2.230469 -5 -5 -5 z m 16 0 c -2.769531 0 -5 2.230469 -5 5 v 6 c 0 2.769531 2.230469 5 5 5 s 5 -2.230469 5 -5 v -6 c 0 -2.769531 -2.230469 -5 -5 -5 z m 16 0 c -2.769531 0 -5 2.230469 -5 5 v 6 c 0 2.769531 2.230469 5 5 5 s 5 -2.230469 5 -5 v -6 c 0 -2.769531 -2.230469 -5 -5 -5 z m -48 3 c 1.109375 0 2 0.890625 2 2 v 6 c 0 1.109375 -0.890625 2 -2 2 s -2 -0.890625 -2 -2 v -6 c 0 -1.109375 0.890625 -2 2 -2 z m 16 0 c 1.109375 0 2 0.890625 2 2 v 6 c 0 1.109375 -0.890625 2 -2 2 s -2 -0.890625 -2 -2 v -6 c 0 -1.109375 0.890625 -2 2 -2 z m 16 0 c 1.109375 0 2 0.890625 2 2 v 6 c 0 1.109375 -0.890625 2 -2 2 s -2 -0.890625 -2 -2 v -6 c 0 -1.109375 0.890625 -2 2 -2 z m 16 0 c 1.109375 0 2 0.890625 2 2 v 6 c 0 1.109375 -0.890625 2 -2 2 s -2 -0.890625 -2 -2 v -6 c 0 -1.109375 0.890625 -2 2 -2 z m 0 0"/>
    </g>
    <path d="m 4.5 2 c -1.386719 0 -2.5 1.113281 -2.5 2.5 c 0 0.089844 0.007812 0.175781 0.015625 0.261719 c -0.007813 0.078125 -0.015625 0.15625 -0.015625 0.238281 v 8.019531 c 0 0.074219 0.003906 0.148438 0.011719 0.222657 v 0.003906 c -0.007813 0.082031 -0.011719 0.167968 -0.011719 0.253906 c 0 1.386719 1.113281 2.5 2.5 2.5 h 7 c 1.386719 0 2.5 -1.113281 2.5 -2.5 c 0 -0.085938 -0.003906 -0.171875 -0.011719 -0.253906 v -0.003906 c 0.007813 -0.074219 0.011719 -0.148438 0.011719 -0.222657 v -8.019531 c 0 -0.082031 -0.007812 -0.160156 -0.015625 -0.238281 c 0.007813 -0.085938 0.015625 -0.171875 0.015625 -0.261719 c 0 -1.386719 -1.113281 -2.5 -2.5 -2.5 z m 3.5 1 c 1.105469 0 2 0.894531 2 2 c 0 0.351562 -0.09375 0.695312 -0.269531 1 h -0.730469 v -1 c 0 -0.550781 -0.449219 -1 -1 -1 s -1 0.449219 -1 1 v 1 h -0.730469 c -0.175781 -0.304688 -0.269531 -0.648438 -0.269531 -1 c 0 -1.105469 0.894531 -2 2 -2 z m -4 4 h 8 c 0.554688 0 1 0.445312 1 1 v 4 c 0 0.554688 -0.445312 1 -1 1 h -8 c -0.554688 0 -1 -0.445312 -1 -1 v -4 c 0 -0.554688 0.445312 -1 1 -1 z m 0 1 v 4 h 8 v -4 z m 1.476562 1 h 0.023438 c 0.035156 0 0.070312 0.003906 0.101562 0.011719 c 0.03125 0.003906 0.0625 0.015625 0.09375 0.027343 c 0.03125 0.011719 0.058594 0.027344 0.085938 0.046876 c 0.023438 0.019531 0.050781 0.039062 0.074219 0.058593 c 0.019531 0.023438 0.039062 0.050781 0.058593 0.074219 c 0.019532 0.027344 0.035157 0.054688 0.046876 0.085938 c 0.011718 0.03125 0.023437 0.0625 0.027343 0.09375 c 0.007813 0.03125 0.011719 0.066406 0.011719 0.101562 v 1 c 0 0.035156 -0.003906 0.070312 -0.011719 0.101562 c -0.003906 0.03125 -0.015625 0.0625 -0.027343 0.09375 c -0.011719 0.03125 -0.027344 0.058594 -0.046876 0.085938 c -0.019531 0.023438 -0.039062 0.050781 -0.058593 0.074219 c -0.023438 0.019531 -0.050781 0.039062 -0.074219 0.058593 c -0.027344 0.019532 -0.054688 0.035157 -0.085938 0.046876 c -0.03125 0.011718 -0.0625 0.023437 -0.09375 0.027343 c -0.03125 0.007813 -0.066406 0.011719 -0.101562 0.011719 s -0.070312 -0.003906 -0.101562 -0.011719 c -0.03125 -0.003906 -0.0625 -0.015625 -0.09375 -0.027343 c -0.03125 -0.011719 -0.058594 -0.027344 -0.085938 -0.046876 c -0.023438 -0.019531 -0.050781 -0.039062 -0.074219 -0.058593 c -0.019531 -0.023438 -0.039062 -0.050781 -0.058593 -0.074219 c -0.019532 -0.027344 -0.035157 -0.054688 -0.046876 -0.085938 c -0.011718 -0.03125 -0.023437 -0.0625 -0.027343 -0.09375 c -0.007813 -0.03125 -0.011719 -0.066406 -0.011719 -0.101562 v -1 c 0 -0.035156 0.003906 -0.066406 0.011719 -0.097656 c 0.003906 -0.03125 0.011719 -0.0625 0.027343 -0.089844 c 0.011719 -0.03125 0.023438 -0.058594 0.042969 -0.085938 c 0.015625 -0.027343 0.035157 -0.050781 0.054688 -0.070312 c 0.023437 -0.023438 0.046875 -0.042969 0.070312 -0.0625 c 0.027344 -0.019531 0.054688 -0.035156 0.082031 -0.046875 c 0.027344 -0.011719 0.058594 -0.027344 0.089844 -0.035156 c 0.03125 -0.003907 0.0625 -0.011719 0.097656 -0.011719 z m 2 0 h 0.023438 h 0.023438 h 0.976562 h 0.023438 c 0.265624 0.011719 0.476562 0.230469 0.476562 0.5 v 1 c 0 0.277344 -0.222656 0.5 -0.5 0.5 h -0.976562 c -0.007813 0 -0.015626 0 -0.023438 0 s -0.015625 0 -0.023438 0 c -0.011718 0 -0.019531 0 -0.027343 0 c -0.035157 -0.003906 -0.066407 -0.011719 -0.097657 -0.019531 c -0.046874 -0.015625 -0.089843 -0.039063 -0.132812 -0.066407 c -0.011719 -0.007812 -0.023438 -0.015624 -0.039062 -0.027343 c -0.023438 -0.019531 -0.046876 -0.042969 -0.066407 -0.066407 c -0.011719 -0.015624 -0.019531 -0.027343 -0.027343 -0.039062 c -0.027344 -0.042969 -0.050782 -0.085938 -0.066407 -0.132812 c -0.007812 -0.03125 -0.015625 -0.0625 -0.019531 -0.097657 c 0 -0.015625 0 -0.035156 0 -0.050781 v -1 c 0 -0.015625 0 -0.035156 0 -0.050781 c 0.003906 -0.035157 0.011719 -0.066407 0.019531 -0.097657 c 0.015625 -0.046874 0.039063 -0.089843 0.066407 -0.132812 c 0.007812 -0.011719 0.015624 -0.023438 0.027343 -0.039062 c 0.019531 -0.023438 0.042969 -0.046876 0.066407 -0.066407 c 0.015624 -0.011719 0.027343 -0.019531 0.039062 -0.027343 c 0.042969 -0.027344 0.085938 -0.050782 0.132812 -0.066407 c 0.03125 -0.007812 0.0625 -0.015625 0.097657 -0.019531 z m 3 0 h 0.023438 c 0.035156 0 0.070312 0.003906 0.101562 0.011719 c 0.03125 0.003906 0.0625 0.015625 0.09375 0.027343 c 0.03125 0.011719 0.058594 0.027344 0.085938 0.046876 c 0.023438 0.019531 0.050781 0.039062 0.074219 0.058593 c 0.019531 0.023438 0.039062 0.050781 0.058593 0.074219 c 0.019532 0.027344 0.035157 0.054688 0.046876 0.085938 c 0.011718 0.03125 0.023437 0.0625 0.027343 0.09375 c 0.007813 0.03125 0.011719 0.066406 0.011719 0.101562 v 1 c 0 0.035156 -0.003906 0.070312 -0.011719 0.101562 c -0.003906 0.03125 -0.015625 0.0625 -0.027343 0.09375 c -0.011719 0.03125 -0.027344 0.058594 -0.046876 0.085938 c -0.019531 0.023438 -0.039062 0.050781 -0.058593 0.074219 c -0.023438 0.019531 -0.050781 0.039062 -0.074219 0.058593 c -0.027344 0.019532 -0.054688 0.035157 -0.085938 0.046876 c -0.03125 0.011718 -0.0625 0.023437 -0.09375 0.027343 c -0.03125 0.007813 -0.066406 0.011719 -0.101562 0.011719 s -0.070312 -0.003906 -0.101562 -0.011719 c -0.03125 -0.003906 -0.0625 -0.015625 -0.09375 -0.027343 c -0.03125 -0.011719 -0.058594 -0.027344 -0.085938 -0.046876 c -0.023438 -0.019531 -0.050781 -0.039062 -0.074219 -0.058593 c -0.019531 -0.023438 -0.039062 -0.050781 -0.058593 -0.074219 c -0.019532 -0.027344 -0.035157 -0.054688 -0.046876 -0.085938 c -0.011718 -0.03125 -0.023437 -0.0625 -0.027343 -0.09375 c -0.007813 -0.03125 -0.011719 -0.066406 -0.011719 -0.101562 v -1 c 0 -0.035156 0.003906 -0.066406 0.011719 -0.097656 c 0.003906 -0.03125 0.011719 -0.0625 0.027343 -0.089844 c 0.011719 -0.03125 0.023438 -0.058594 0.042969 -0.085938 c 0.015625 -0.027343 0.035157 -0.050781 0.054688 -0.070312 c 0.023437 -0.023438 0.046875 -0.042969 0.070312 -0.0625 c 0.027344 -0.019531 0.054688 -0.035156 0.082031 -0.046875 c 0.027344 -0.011719 0.058594 -0.027344 0.089844 -0.035156 c 0.03125 -0.003907 0.0625 -0.011719 0.097656 -0.011719 z m 0 0"/>
</svg>
