<?xml version="1.0" encoding="UTF-8"?>
<svg height="128px" viewBox="0 0 128 128" width="128px" xmlns="http://www.w3.org/2000/svg" xmlns:xlink="http://www.w3.org/1999/xlink">
    <linearGradient id="a" gradientTransform="matrix(0.196428 0 0 0.342105 2.59728 273.739502)" gradientUnits="userSpaceOnUse" x1="88.595886" x2="536.595886" y1="-449.394012" y2="-449.394012">
        <stop offset="0" stop-color="#454f87"/>
        <stop offset="0.0500001" stop-color="#6574cd"/>
        <stop offset="0.099807" stop-color="#313d9b"/>
        <stop offset="0.900001" stop-color="#313473"/>
        <stop offset="0.950001" stop-color="#6574cd"/>
        <stop offset="1" stop-color="#455087"/>
    </linearGradient>
    <linearGradient id="b" gradientUnits="userSpaceOnUse" x1="63.999995" x2="63.999995" y1="8" y2="115.505005">
        <stop offset="0" stop-color="#a9b0e0"/>
        <stop offset="0.223245" stop-color="#7582d1"/>
        <stop offset="0.818567" stop-color="#6574cd"/>
        <stop offset="1" stop-color="#3443b6"/>
    </linearGradient>
    <filter id="c" height="100%" width="100%" x="0%" y="0%">
        <feColorMatrix in="SourceGraphic" type="matrix" values="0 0 0 0 1 0 0 0 0 1 0 0 0 0 1 0 0 0 1 0"/>
    </filter>
    <mask id="d">
        <g filter="url(#c)">
            <rect fill-opacity="0.15" height="128" width="128"/>
        </g>
    </mask>
    <clipPath id="e">
        <rect height="152" width="192"/>
    </clipPath>
    <linearGradient id="f" gradientUnits="userSpaceOnUse" x1="64" x2="64" y1="54" y2="82">
        <stop offset="0" stop-color="#241f31"/>
        <stop offset="0.214286" stop-color="#3d3846"/>
        <stop offset="0.285714" stop-color="#4a4559"/>
        <stop offset="0.357143" stop-color="#3d3846"/>
        <stop offset="0.857143" stop-color="#3d3846"/>
        <stop offset="1" stop-color="#241f31"/>
    </linearGradient>
    <mask id="g">
        <g filter="url(#c)">
            <rect fill-opacity="0.15" height="128" width="128"/>
        </g>
    </mask>
    <clipPath id="h">
        <rect height="152" width="192"/>
    </clipPath>
    <linearGradient id="i" gradientUnits="userSpaceOnUse" x1="64" x2="64" y1="44" y2="20">
        <stop offset="0" stop-color="#3a4fbb"/>
        <stop offset="0.125" stop-color="#8a92d6"/>
        <stop offset="0.166667" stop-color="#6574cd"/>
        <stop offset="1" stop-color="#9da5dc"/>
    </linearGradient>
    <mask id="j">
        <g filter="url(#c)">
            <rect fill-opacity="0.1" height="128" width="128"/>
        </g>
    </mask>
    <clipPath id="k">
        <rect height="152" width="192"/>
    </clipPath>
    <mask id="l">
        <g filter="url(#c)">
            <rect fill-opacity="0.15" height="128" width="128"/>
        </g>
    </mask>
    <clipPath id="m">
        <rect height="152" width="192"/>
    </clipPath>
    <mask id="n">
        <g filter="url(#c)">
            <rect fill-opacity="0.3" height="128" width="128"/>
        </g>
    </mask>
    <clipPath id="o">
        <rect height="152" width="192"/>
    </clipPath>
    <path d="m 39.484375 12 c -10.792969 0 -19.484375 8.691406 -19.484375 19.484375 c 0 0.335937 0.007812 0.671875 0.027344 1.007813 c -0.011719 0.167968 -0.027344 0.335937 -0.027344 0.507812 v 67 c 0 0.058594 0.007812 0.117188 0.007812 0.175781 c 0 0.113281 -0.007812 0.226563 -0.007812 0.339844 c 0 10.792969 8.691406 19.484375 19.484375 19.484375 h 49.03125 c 10.792969 0 19.484375 -8.691406 19.484375 -19.484375 c 0 -0.113281 -0.007812 -0.226563 -0.007812 -0.339844 c 0 -0.058593 0.007812 -0.117187 0.007812 -0.175781 v -67 c 0 -0.171875 -0.015625 -0.339844 -0.027344 -0.507812 c 0.019532 -0.335938 0.027344 -0.671876 0.027344 -1.007813 c 0 -10.792969 -8.691406 -19.484375 -19.484375 -19.484375 z m 0 0" fill="url(#a)"/>
    <path d="m 39.484375 8 c -10.792969 0 -19.484375 8.691406 -19.484375 19.484375 c 0 0.335937 0.007812 0.671875 0.027344 1.007813 c -0.011719 0.167968 -0.027344 0.335937 -0.027344 0.507812 v 67 c 0 0.058594 0.007812 0.117188 0.007812 0.175781 c 0 0.113281 -0.007812 0.226563 -0.007812 0.339844 c 0 10.792969 8.691406 19.484375 19.484375 19.484375 h 49.03125 c 10.792969 0 19.484375 -8.691406 19.484375 -19.484375 c 0 -0.113281 -0.007812 -0.226563 -0.007812 -0.339844 c 0 -0.058593 0.007812 -0.117187 0.007812 -0.175781 v -67 c 0 -0.171875 -0.015625 -0.339844 -0.027344 -0.507812 c 0.019532 -0.335938 0.027344 -0.671876 0.027344 -1.007813 c 0 -10.792969 -8.691406 -19.484375 -19.484375 -19.484375 z m 0 0" fill="url(#b)"/>
    <g clip-path="url(#e)" mask="url(#d)" transform="matrix(1 0 0 1 -8 -16)">
        <path d="m 72 35 c -7.457031 0 -13.5 6.042969 -13.5 13.5 c 0.007812 3.34375 1.253906 6.566406 3.5 9.042969 v 3.457031 c 0 0.554688 0.445312 1 1 1 h 18 c 0.554688 0 1 -0.445312 1 -1 v -3.457031 c 2.246094 -2.476563 3.492188 -5.699219 3.5 -9.042969 c 0 -7.457031 -6.042969 -13.5 -13.5 -13.5 z m 0 0"/>
    </g>
    <path d="m 33 50 h 62 c 2.210938 0 4 1.789062 4 4 v 28 c 0 2.210938 -1.789062 4 -4 4 h -62 c -2.210938 0 -4 -1.789062 -4 -4 v -28 c 0 -2.210938 1.789062 -4 4 -4 z m 0 0" fill="#3d3846"/>
    <path d="m 34 52 h 60 c 1.65625 0 3 1.34375 3 3 v 26 c 0 1.65625 -1.34375 3 -3 3 h -60 c -1.65625 0 -3 -1.34375 -3 -3 v -26 c 0 -1.65625 1.34375 -3 3 -3 z m 0 0"/>
    <path d="m 34 54 c -0.554688 0 -1 0.445312 -1 1 v 26 c 0 0.554688 0.445312 1 1 1 h 12 c 0.554688 0 1 -0.445312 1 -1 v -26 c 0 -0.554688 -0.445312 -1 -1 -1 z m 16 0 c -0.554688 0 -1 0.445312 -1 1 v 26 c 0 0.554688 0.445312 1 1 1 h 12 c 0.554688 0 1 -0.445312 1 -1 v -26 c 0 -0.554688 -0.445312 -1 -1 -1 z m 16 0 c -0.554688 0 -1 0.445312 -1 1 v 26 c 0 0.554688 0.445312 1 1 1 h 12 c 0.554688 0 1 -0.445312 1 -1 v -26 c 0 -0.554688 -0.445312 -1 -1 -1 z m 16 0 c -0.554688 0 -1 0.445312 -1 1 v 26 c 0 0.554688 0.445312 1 1 1 h 12 c 0.554688 0 1 -0.445312 1 -1 v -26 c 0 -0.554688 -0.445312 -1 -1 -1 z m 0 0" fill="url(#f)"/>
    <g clip-path="url(#h)" mask="url(#g)" transform="matrix(1 0 0 1 -8 -16)">
        <path d="m 64 57 h 16 c 0.550781 0 1 0.449219 1 1 v 2 c 0 0.550781 -0.449219 1 -1 1 h -16 c -0.550781 0 -1 -0.449219 -1 -1 v -2 c 0 -0.550781 0.449219 -1 1 -1 z m 0 0"/>
    </g>
    <path d="m 64 20 c -6.628906 0 -12 5.371094 -12 12 c 0.003906 3.410156 1.460938 6.652344 4 8.925781 v 2.074219 c 0 0.554688 0.445312 1 1 1 h 14 c 0.554688 0 1 -0.445312 1 -1 v -2.074219 c 2.539062 -2.273437 3.996094 -5.515625 4 -8.925781 c 0 -6.628906 -5.371094 -12 -12 -12 z m 0 0" fill="url(#i)"/>
    <g clip-path="url(#k)" mask="url(#j)" transform="matrix(1 0 0 1 -8 -16)">
        <path d="m 72 36 c -6.628906 0 -12 5.371094 -12 12 c 0.003906 3.410156 1.460938 6.652344 4 8.925781 v 2.074219 c 0 0.554688 0.445312 1 1 1 h 14 c 0.554688 0 1 -0.445312 1 -1 v -2.074219 c 2.539062 -2.273437 3.996094 -5.515625 4 -8.925781 c 0 -6.628906 -5.371094 -12 -12 -12 z m 0 0" fill="#ffffff"/>
    </g>
    <g clip-path="url(#m)" mask="url(#l)" transform="matrix(1 0 0 1 -8 -16)">
        <path d="m 28 45 v 67 s 4 -9.5 4 -32 s -4 -35 -4 -35 z m 88 0 s -4 12.5 -4 35 s 4 32 4 32 z m 0 0" fill="#ffffff"/>
    </g>
    <g clip-path="url(#o)" mask="url(#n)" transform="matrix(1 0 0 1 -8 -16)">
        <path d="m 48 74 c -2.769531 0 -5 2.230469 -5 5 v 6 c 0 2.769531 2.230469 5 5 5 s 5 -2.230469 5 -5 v -6 c 0 -2.769531 -2.230469 -5 -5 -5 z m 16 0 c -2.769531 0 -5 2.230469 -5 5 v 6 c 0 2.769531 2.230469 5 5 5 s 5 -2.230469 5 -5 v -6 c 0 -2.769531 -2.230469 -5 -5 -5 z m 16 0 c -2.769531 0 -5 2.230469 -5 5 v 6 c 0 2.769531 2.230469 5 5 5 s 5 -2.230469 5 -5 v -6 c 0 -2.769531 -2.230469 -5 -5 -5 z m 16 0 c -2.769531 0 -5 2.230469 -5 5 v 6 c 0 2.769531 2.230469 5 5 5 s 5 -2.230469 5 -5 v -6 c 0 -2.769531 -2.230469 -5 -5 -5 z m -48 3 c 1.109375 0 2 0.890625 2 2 v 6 c 0 1.109375 -0.890625 2 -2 2 s -2 -0.890625 -2 -2 v -6 c 0 -1.109375 0.890625 -2 2 -2 z m 16 0 c 1.109375 0 2 0.890625 2 2 v 6 c 0 1.109375 -0.890625 2 -2 2 s -2 -0.890625 -2 -2 v -6 c 0 -1.109375 0.890625 -2 2 -2 z m 16 0 c 1.109375 0 2 0.890625 2 2 v 6 c 0 1.109375 -0.890625 2 -2 2 s -2 -0.890625 -2 -2 v -6 c 0 -1.109375 0.890625 -2 2 -2 z m 16 0 c 1.109375 0 2 0.890625 2 2 v 6 c 0 1.109375 -0.890625 2 -2 2 s -2 -0.890625 -2 -2 v -6 c 0 -1.109375 0.890625 -2 2 -2 z m 0 0"/>
    </g>
    <g fill="#f6f5f4">
        <path d="m 40 60 c -2.769531 0 -5 2.230469 -5 5 v 6 c 0 2.769531 2.230469 5 5 5 s 5 -2.230469 5 -5 v -6 c 0 -2.769531 -2.230469 -5 -5 -5 z m 0 3 c 1.109375 0 2 0.890625 2 2 v 6 c 0 1.109375 -0.890625 2 -2 2 s -2 -0.890625 -2 -2 v -6 c 0 -1.109375 0.890625 -2 2 -2 z m 0 0"/>
        <path d="m 56 60 c -2.769531 0 -5 2.230469 -5 5 v 6 c 0 2.769531 2.230469 5 5 5 s 5 -2.230469 5 -5 v -6 c 0 -2.769531 -2.230469 -5 -5 -5 z m 0 3 c 1.109375 0 2 0.890625 2 2 v 6 c 0 1.109375 -0.890625 2 -2 2 s -2 -0.890625 -2 -2 v -6 c 0 -1.109375 0.890625 -2 2 -2 z m 0 0"/>
        <path d="m 72 60 c -2.769531 0 -5 2.230469 -5 5 v 6 c 0 2.769531 2.230469 5 5 5 s 5 -2.230469 5 -5 v -6 c 0 -2.769531 -2.230469 -5 -5 -5 z m 0 3 c 1.109375 0 2 0.890625 2 2 v 6 c 0 1.109375 -0.890625 2 -2 2 s -2 -0.890625 -2 -2 v -6 c 0 -1.109375 0.890625 -2 2 -2 z m 0 0"/>
        <path d="m 88 60 c -2.769531 0 -5 2.230469 -5 5 v 6 c 0 2.769531 2.230469 5 5 5 s 5 -2.230469 5 -5 v -6 c 0 -2.769531 -2.230469 -5 -5 -5 z m 0 3 c 1.109375 0 2 0.890625 2 2 v 6 c 0 1.109375 -0.890625 2 -2 2 s -2 -0.890625 -2 -2 v -6 c 0 -1.109375 0.890625 -2 2 -2 z m 0 0"/>
    </g>
</svg>
